<?xml version="1.0" encoding="UTF-8" standalone="no"?>
<!DOCTYPE svg PUBLIC "-//W3C//DTD SVG 1.1//EN" "http://www.w3.org/Graphics/SVG/1.1/DTD/svg11.dtd">
<svg width="100%" height="100%" viewBox="0 0 512 512" version="1.1" xmlns="http://www.w3.org/2000/svg" xmlns:xlink="http://www.w3.org/1999/xlink" xml:space="preserve" xmlns:serif="http://www.serif.com/" style="fill-rule:evenodd;clip-rule:evenodd;stroke-linecap:round;stroke-linejoin:round;stroke-miterlimit:1.5;">
    <g>
        <path d="M0,0L114.9,0" style="fill:none;fill-rule:nonzero;"/>
        <path d="M512,0L512,512L0,512L0,0" style="fill:rgb(79,118,187);fill-rule:nonzero;"/>
        <path d="M0,0L512,0" style="fill:none;stroke:black;stroke-width:1px;"/>
        <path d="M512,512L0,512" style="fill:none;stroke:black;stroke-width:1px;"/>
        <path d="M299,164.7C307.6,164.4 316.2,164.6 324.8,164.6L328.3,164.6L328.3,119.9C323.7,119.4 318.9,118.8 314.1,118.6C305.3,118.2 296.5,117.8 287.6,118C274.1,118.3 261.4,121.6 250.3,129.5C237.5,138.7 230.5,151.6 227.9,166.8C226.8,173.1 226.5,179.6 226.3,186C226.1,196 226.3,206 226.3,216.1L226.3,219.9L183.6,219.9L183.6,269.8L226.1,269.8L226.1,395.2L278,395.2L278,269.9L320.4,269.9C322.6,253.3 324.7,236.9 326.9,219.8L317.4,219.8C305.3,219.9 277.7,219.8 277.7,219.8C277.7,219.8 277.8,195.1 278.1,184.3C278.5,169.6 287.3,165.1 299,164.7Z" style="fill:white;"/>
    </g>
</svg>
