<?xml version="1.0" encoding="UTF-8" standalone="no"?>
<!DOCTYPE svg PUBLIC "-//W3C//DTD SVG 1.1//EN" "http://www.w3.org/Graphics/SVG/1.1/DTD/svg11.dtd">
<svg width="100%" height="100%" viewBox="0 0 512 512" version="1.1" xmlns="http://www.w3.org/2000/svg" xmlns:xlink="http://www.w3.org/1999/xlink" xml:space="preserve" xmlns:serif="http://www.serif.com/" style="fill-rule:evenodd;clip-rule:evenodd;stroke-linejoin:round;stroke-miterlimit:1.41421;">
    <g>
        <g transform="matrix(3.91079,0,0,4.79748,-253.3,-215.013)">
            <rect x="64.77" y="44.818" width="130.92" height="106.723" style="fill:rgb(52,196,243);"/>
        </g>
        <path d="M208.2,321.1C177.9,320 159,298.3 154,280.7C162.4,282.3 170.7,282 179,279.9C179.2,279.9 179.4,279.7 179.8,279.5C163.4,275.7 150.8,266.9 142,252.8C136.2,243.4 133.4,233.1 133.5,221.8C141.7,226.2 150.2,228.6 159.4,228.9C147.1,220 138.8,208.4 135.4,193.6C132,178.8 134.2,164.7 141.6,151.4C173.1,188.5 213,208.9 261.7,212.2C261.4,209.9 261,207.9 260.8,205.8C259.2,192.1 261.9,179.3 269.3,167.7C278.6,153.2 291.8,144.1 308.8,141.4C328.4,138.2 345.5,143.8 359.8,157.6C360.8,158.5 361.5,158.8 362.9,158.5C374.9,155.9 386.1,151.6 396.8,145.5C397.1,145.4 397.3,145.2 397.6,145.1L398,145.1C393.4,158.6 385,169.1 373.1,176.8C384.4,175.6 395.1,172.6 405.5,168.1C405.6,168.2 405.7,168.3 405.7,168.4C403.5,171.3 401.3,174.3 399,177.1C392.8,184.7 385.7,191.4 377.8,197.2C377.1,197.7 376.8,198.2 376.8,199C377.1,207.6 376.8,216.3 375.7,224.9C373.4,243 368.4,260.2 360.7,276.7C352.7,293.7 342.3,309.1 329.2,322.6C307,345.5 280.3,360.3 249.2,367.2C238.5,369.5 227.7,370.7 216.8,371.1C183.2,372.1 152.2,363.7 123.6,346.1C123.2,345.9 122.9,345.6 122.2,345.2C142.5,347.4 161.8,344.8 180.4,337.2C190.4,333.2 199.6,327.9 208.2,321.1Z" style="fill:white;"/>
    </g>
</svg>
