<?xml version="1.0" encoding="UTF-8" standalone="no"?>
<!DOCTYPE svg PUBLIC "-//W3C//DTD SVG 1.1//EN" "http://www.w3.org/Graphics/SVG/1.1/DTD/svg11.dtd">
<svg width="100%" height="100%" viewBox="0 0 512 512" version="1.1" xmlns="http://www.w3.org/2000/svg" xmlns:xlink="http://www.w3.org/1999/xlink" xml:space="preserve" xmlns:serif="http://www.serif.com/" style="fill-rule:evenodd;clip-rule:evenodd;stroke-linejoin:round;stroke-miterlimit:1.41421;">
    <g>
        <g transform="matrix(3.91079,0,0,4.79748,-253.3,-215.013)">
            <rect x="64.77" y="44.818" width="130.92" height="106.723" style="fill:rgb(32,158,72);"/>
        </g>
        <g>
            <path d="M125.8,386.9C127.3,381.2 128.5,376.3 129.9,371.4C134.2,355.7 138.6,340 142.7,324.2C143.3,321.9 143,318.7 141.9,316.6C101.9,240.4 143.2,148.3 227,128.6C303.1,110.7 371.6,162.1 384.1,230.8C397.1,302.5 350.2,370.5 279.1,383C250.8,387.9 223.8,383.7 198,371.2C195.7,370.1 192.5,369.8 190,370.4C155.6,379.1 132.7,385.5 125.8,386.9ZM156,357.1C168.9,353.7 180.8,350.7 192.7,347.4C196,346.5 198.6,347 201.6,348.7C223.9,361.6 247.9,366.4 273.5,362.3C332.4,352.9 372.8,297.7 363.8,239C354.4,178.1 297.4,137.3 237.1,148.4C164.2,161.8 125.4,243.1 161.7,307.5C165.7,314.6 166.8,320.5 164.1,328.1C160.8,337.2 158.8,346.7 156,357.1Z" style="fill:white;"/>
            <path d="M290.2,317.2C264.8,316.3 224.5,296.3 196.8,248.2C187,231.1 188.4,211.7 202.8,198.3C207.7,193.8 213.8,194.9 219.5,195.8C220.9,196 222.4,198.2 223.1,199.8C226.8,208.2 230.4,216.6 233.6,225.1C235.3,229.7 232.2,233.9 225.6,241.4C223.5,243.8 223.1,246 224.7,248.8C235.3,266.8 250.2,279.9 269.7,287.5C272.6,288.6 274.7,287.9 276.5,285.7C286.9,273.1 287.9,269.4 293.4,271.9C319.6,284.5 321.7,285 321.8,287.9C322.8,310.2 302.5,318.1 290.2,317.2Z" style="fill:white;"/>
        </g>
    </g>
</svg>
